<svg xmlns="http://www.w3.org/2000/svg" viewBox="0 0 24 24" fill="none"><g transform="translate(12 12) scale(0.9535) translate(-10.25 -10.75)"><path id="Calendar10-20yearsVectors" d="M13.75 0C14.1642 0 14.5 0.335786 14.5 0.75V2H16.75C17.4793 2 18.1786 2.28994 18.6943 2.80566C19.2101 3.32139 19.5 4.02065 19.5 4.75V6.25C19.5 6.66421 19.1642 7 18.75 7C18.3358 7 18 6.66421 18 6.25V4.75C18 4.41848 17.8682 4.10063 17.6338 3.86621C17.4288 3.6612 17.16 3.53436 16.874 3.50586L16.75 3.5H14.5V4.75C14.5 5.16421 14.1642 5.5 13.75 5.5C13.3358 5.5 13 5.16421 13 4.75V3.5H6.5V4.75C6.5 5.16421 6.16421 5.5 5.75 5.5C5.33579 5.5 5 5.16421 5 4.75V3.5H2.75C2.41848 3.5 2.10063 3.63179 1.86621 3.86621C1.63179 4.10063 1.5 4.41848 1.5 4.75V8H5.75C6.16421 8 6.5 8.33579 6.5 8.75C6.5 9.16421 6.16421 9.5 5.75 9.5H1.5V18.75C1.5 19.0815 1.63179 19.3994 1.86621 19.6338C2.10063 19.8682 2.41848 20 2.75 20H6.25C6.66421 20 7 20.3358 7 20.75C7 21.1642 6.66421 21.5 6.25 21.5H2.75C2.02065 21.5 1.32139 21.2101 0.805664 20.6943C0.289939 20.1786 0 19.4793 0 18.75V4.75C0 4.02065 0.289939 3.32139 0.805664 2.80566C1.32139 2.28994 2.02065 2 2.75 2H5V0.75C5 0.335786 5.33579 0 5.75 0C6.16421 0 6.5 0.335786 6.5 0.75V2H13V0.75C13 0.335786 13.3358 0 13.75 0ZM13.75 8C17.4779 8 20.5 11.0221 20.5 14.75C20.5 18.4779 17.4779 21.5 13.75 21.5C10.0221 21.5 7 18.4779 7 14.75C7 11.0221 10.0221 8 13.75 8ZM13.75 9.5C10.8505 9.5 8.5 11.8505 8.5 14.75C8.5 17.6495 10.8505 20 13.75 20C16.6495 20 19 17.6495 19 14.75C19 11.8505 16.6495 9.5 13.75 9.5ZM13.75 12C14.1642 12 14.5 12.3358 14.5 12.75V14.5342L15.7471 15.3145C16.0983 15.534 16.2058 15.9964 15.9863 16.3477C15.7668 16.6989 15.3034 16.8055 14.9521 16.5859L13.3525 15.5859C13.1333 15.4489 13.0001 15.2087 13 14.9502V12.75C13 12.3358 13.3358 12 13.75 12Z" fill="currentColor"/></g></svg>