<svg xmlns="http://www.w3.org/2000/svg" viewBox="0 0 24 24" fill="none"><g transform="translate(12 12) scale(0.9535) translate(-10.75 -8.75)"><path id="CameraVectors" d="M12.7471 0C13.2431 7.6009e-06 13.7302 0.134518 14.1562 0.388672C14.582 0.642772 14.9314 1.00706 15.167 1.44336L15.6533 2.34375C15.7604 2.54203 15.9188 2.70775 16.1123 2.82324C16.3059 2.93876 16.5275 2.99999 16.7529 3H18.75C19.4793 3 20.1786 3.28994 20.6943 3.80566C21.2101 4.32139 21.5 5.02065 21.5 5.75V14.75C21.5 15.4793 21.2101 16.1786 20.6943 16.6943C20.1786 17.2101 19.4793 17.5 18.75 17.5H2.75C2.02065 17.5 1.32139 17.2101 0.805664 16.6943C0.289939 16.1786 0 15.4793 0 14.75V5.75C0 5.02065 0.289939 4.32139 0.805664 3.80566C1.32139 3.28994 2.02065 3 2.75 3H4.74707C4.97221 3.00001 5.19328 2.9394 5.38672 2.82422C5.58024 2.70892 5.73945 2.54283 5.84668 2.34473L6.33496 1.44141C6.57086 1.00557 6.92094 0.64135 7.34668 0.387695C7.77234 0.13413 8.25844 -2.88662e-06 8.75391 0H12.7471ZM8.75391 1.5C8.52877 1.5 8.3077 1.5606 8.11426 1.67578C7.92074 1.79108 7.76152 1.95717 7.6543 2.15527L7.16602 3.05859C6.93012 3.49443 6.58004 3.85865 6.1543 4.1123C5.78191 4.33413 5.36335 4.46502 4.93262 4.49414L4.74707 4.5H2.75C2.41848 4.5 2.10063 4.63179 1.86621 4.86621C1.63179 5.10063 1.5 5.41848 1.5 5.75V14.75C1.5 15.0815 1.63179 15.3994 1.86621 15.6338C2.10063 15.8682 2.41848 16 2.75 16H18.75C19.0815 16 19.3994 15.8682 19.6338 15.6338C19.8682 15.3994 20 15.0815 20 14.75V5.75C20 5.41848 19.8682 5.10063 19.6338 4.86621C19.3994 4.63179 19.0815 4.5 18.75 4.5H16.7529C16.2569 4.49999 15.7698 4.36548 15.3438 4.11133C14.918 3.85723 14.5686 3.49294 14.333 3.05664L13.8467 2.15625C13.7396 1.95797 13.5812 1.79225 13.3877 1.67676C13.1941 1.56124 12.9725 1.50001 12.7471 1.5H8.75391ZM10.75 6C12.8211 6 14.5 7.67893 14.5 9.75C14.5 11.8211 12.8211 13.5 10.75 13.5C8.67893 13.5 7 11.8211 7 9.75C7 7.67893 8.67893 6 10.75 6ZM10.75 7.5C9.50736 7.5 8.5 8.50736 8.5 9.75C8.5 10.9926 9.50736 12 10.75 12C11.9926 12 13 10.9926 13 9.75C13 8.50736 11.9926 7.5 10.75 7.5Z" fill="currentColor"/></g></svg>