<svg xmlns="http://www.w3.org/2000/svg" viewBox="0 0 24 24" fill="none"><g transform="translate(12 12) scale(0.9535) translate(-10.25 -10.75)"><path id="Calendar20+YearsVectors" d="M13.75 0C14.1642 0 14.5 0.335786 14.5 0.75V2H16.75C17.4793 2 18.1786 2.28994 18.6943 2.80566C19.2101 3.32139 19.5 4.02065 19.5 4.75V11.3477C19.5 11.7619 19.1642 12.0977 18.75 12.0977C18.3358 12.0977 18 11.7619 18 11.3477V9.5H1.5V18.75C1.5 19.0815 1.63179 19.3994 1.86621 19.6338C2.10063 19.8682 2.41848 20 2.75 20H11.25C11.6642 20 12 20.3358 12 20.75C12 21.1642 11.6642 21.5 11.25 21.5H2.75C2.02065 21.5 1.32139 21.2101 0.805664 20.6943C0.289939 20.1786 0 19.4793 0 18.75V4.75C0 4.02065 0.289939 3.32139 0.805664 2.80566C1.32139 2.28994 2.02065 2 2.75 2H5V0.75C5 0.335786 5.33579 0 5.75 0C6.16421 0 6.5 0.335786 6.5 0.75V2H13V0.75C13 0.335786 13.3358 0 13.75 0ZM16.75 14C17.1642 14 17.5 14.3358 17.5 14.75V17H19.75C20.1642 17 20.5 17.3358 20.5 17.75C20.5 18.1642 20.1642 18.5 19.75 18.5H17.5V20.75C17.5 21.1642 17.1642 21.5 16.75 21.5C16.3358 21.5 16 21.1642 16 20.75V18.5H13.75C13.3358 18.5 13 18.1642 13 17.75C13 17.3358 13.3358 17 13.75 17H16V14.75C16 14.3358 16.3358 14 16.75 14ZM2.75 3.5C2.41848 3.5 2.10063 3.63179 1.86621 3.86621C1.63179 4.10063 1.5 4.41848 1.5 4.75V8H18V4.75C18 4.41848 17.8682 4.10063 17.6338 3.86621C17.4288 3.6612 17.16 3.53436 16.874 3.50586L16.75 3.5H14.5V4.75C14.5 5.16421 14.1642 5.5 13.75 5.5C13.3358 5.5 13 5.16421 13 4.75V3.5H6.5V4.75C6.5 5.16421 6.16421 5.5 5.75 5.5C5.33579 5.5 5 5.16421 5 4.75V3.5H2.75Z" fill="currentColor"/></g></svg>