<svg xmlns="http://www.w3.org/2000/svg" viewBox="0 0 24 24" fill="none"><g transform="translate(12 12) scale(0.9535) translate(-10.75 -10.75)"><path id="ImagesVectors" d="M2.75 6C3.16421 6 3.5 6.33579 3.5 6.75C3.5 7.16421 3.16421 7.5 2.75 7.5C2.41848 7.5 2.10063 7.63179 1.86621 7.86621C1.63179 8.10063 1.5 8.41848 1.5 8.75V18.75C1.5 19.0815 1.63179 19.3994 1.86621 19.6338C2.10063 19.8682 2.41848 20 2.75 20H12.75C13.0815 20 13.3994 19.8682 13.6338 19.6338C13.8682 19.3994 14 19.0815 14 18.75C14 18.3358 14.3358 18 14.75 18C15.1642 18 15.5 18.3358 15.5 18.75C15.5 19.4793 15.2101 20.1786 14.6943 20.6943C14.1786 21.2101 13.4793 21.5 12.75 21.5H2.75C2.02065 21.5 1.32139 21.2101 0.805664 20.6943C0.289939 20.1786 0 19.4793 0 18.75V8.75C0 8.02065 0.289939 7.32139 0.805664 6.80566C1.32139 6.28994 2.02065 6 2.75 6ZM18.75 0C20.2688 0 21.5 1.23122 21.5 2.75V12.75C21.5 14.2688 20.2688 15.5 18.75 15.5H8.75C7.23122 15.5 6 14.2688 6 12.75V2.75C6 1.23122 7.23122 0 8.75 0H18.75ZM17.75 8.49414C17.5322 8.49414 17.3163 8.53733 17.1152 8.62109C16.9142 8.70486 16.7315 8.82782 16.5781 8.98242L11.5605 14H18.75C19.4404 14 20 13.4404 20 12.75V10.0605L18.9219 8.98242C18.7685 8.82782 18.5858 8.70486 18.3848 8.62109C18.1837 8.53733 17.9678 8.49414 17.75 8.49414ZM8.75 1.5C8.05964 1.5 7.5 2.05964 7.5 2.75V12.75C7.5 13.4404 8.05964 14 8.75 14H9.43945L15.5156 7.92383C15.808 7.62958 16.1561 7.39587 16.5391 7.23633C16.9228 7.07652 17.3343 6.99414 17.75 6.99414C18.1657 6.99414 18.5772 7.07652 18.9609 7.23633C19.3439 7.39587 19.692 7.62958 19.9844 7.92383L20 7.93945V2.75C20 2.05964 19.4404 1.5 18.75 1.5H8.75ZM11.75 4C12.7165 4 13.5 4.7835 13.5 5.75C13.5 6.7165 12.7165 7.5 11.75 7.5C10.7835 7.5 10 6.7165 10 5.75C10 4.7835 10.7835 4 11.75 4Z" fill="currentColor"/></g></svg>