<svg xmlns="http://www.w3.org/2000/svg" viewBox="0 0 24 24" fill="none"><g transform="translate(12 12) scale(0.9996) translate(-9.75 -10.2545)"><path id="Leak2Vectors" d="M11.7529 5.82441e-06C12.1092 0.00147322 12.4153 0.253295 12.4854 0.602545C12.9494 2.92232 14.351 5.16983 16.2188 6.66407C18.3524 8.37108 19.499 10.4704 19.5 12.7471L19.4961 13.0332C19.4489 14.4638 19.0051 15.8558 18.2119 17.0518C17.3658 18.3273 16.1597 19.3236 14.7471 19.9131C13.3345 20.5025 11.7781 20.659 10.2764 20.3633C8.7746 20.0675 7.39415 19.332 6.31055 18.251C6.01751 17.9586 6.01659 17.4837 6.30859 17.1904C6.60115 16.8972 7.07592 16.8969 7.36914 17.1895C8.24249 18.0608 9.35599 18.6532 10.5664 18.8916C11.7766 19.1299 13.0306 19.0032 14.1689 18.5283C15.3074 18.0532 16.28 17.2506 16.9619 16.2227C17.6438 15.1946 18.005 13.9865 18 12.7529V12.75C18 11.028 17.1464 9.32812 15.2812 7.83594C13.774 6.63013 12.5352 4.99941 11.748 3.20118C11.518 3.72758 11.2512 4.23874 10.9453 4.72754C10.7255 5.07824 10.2631 5.18528 9.91211 4.96583C9.56113 4.74616 9.45442 4.28271 9.67383 3.93165C10.3144 2.9081 10.769 1.77871 11.0156 0.596686L11.0537 0.470709C11.1664 0.189486 11.4413 -0.00121467 11.7529 5.82441e-06ZM4.75 2.2793C5.1073 2.2793 5.415 2.53159 5.48535 2.88184C5.73957 4.15294 6.50218 5.38267 7.51367 6.20801C8.78754 7.24722 9.49992 8.54658 9.5 9.9795C9.49989 12.6039 7.3738 14.7793 4.75 14.7793C2.1262 14.7793 0.000105583 12.6039 0 9.9795C8.18883e-05 8.5627 0.69666 7.2399 1.99121 6.20411C3.00402 5.39381 3.75943 4.15792 4.01465 2.88184L4.05176 2.75587C4.16255 2.47275 4.43721 2.2793 4.75 2.2793ZM4.75195 5.17579C4.2913 6.02315 3.66698 6.78434 2.92871 7.37501C1.92368 8.17903 1.50008 9.09661 1.5 9.9795C1.50011 11.7949 2.97393 13.2793 4.75 13.2793C6.52607 13.2793 7.99989 11.7949 8 9.9795C7.99992 9.0926 7.57139 8.19078 6.56543 7.37012C5.83837 6.77687 5.21415 6.02008 4.75195 5.17579Z" fill="currentColor"/></g></svg>