<svg xmlns="http://www.w3.org/2000/svg" viewBox="0 0 24 24" fill="none"><g transform="translate(12 12) scale(0.3504) translate(-29.25 -29.25)"><path d="M56.25 36C57.4926 36 58.5 37.0074 58.5 38.25V50.25C58.5 52.438 57.6312 54.5368 56.084 56.084C54.5368 57.6312 52.438 58.5 50.25 58.5H8.25C6.06196 58.5 3.96319 57.6312 2.41602 56.084C0.868841 54.5368 0 52.438 0 50.25V38.25C0 37.0074 1.00736 36 2.25 36C3.49264 36 4.5 37.0074 4.5 38.25V50.25L4.50488 50.4355C4.55077 51.3625 4.93923 52.242 5.59863 52.9014C6.30189 53.6046 7.25544 54 8.25 54H50.25C51.2446 54 52.1981 53.6046 52.9014 52.9014C53.6046 52.1981 54 51.2446 54 50.25V38.25C54 37.0074 55.0074 36 56.25 36ZM29.25 0C30.4926 0 31.5 1.00736 31.5 2.25V32.8184L42.6592 21.6592C43.5379 20.7805 44.9621 20.7805 45.8408 21.6592C46.7195 22.5379 46.7195 23.9621 45.8408 24.8408L30.8408 39.8408C30.7354 39.9463 30.6188 40.0401 30.4941 40.123C30.4746 40.1361 30.4544 40.1478 30.4346 40.1602C30.392 40.1866 30.3491 40.2127 30.3047 40.2363C30.2833 40.2477 30.2609 40.2569 30.2393 40.2676C30.1955 40.2891 30.1517 40.3104 30.1064 40.3291C30.0746 40.3422 30.042 40.3527 30.0098 40.3643C29.9753 40.3766 29.9414 40.3906 29.9062 40.4014C29.8618 40.4149 29.8165 40.4248 29.7715 40.4355C29.7454 40.4417 29.7198 40.4498 29.6934 40.4551C29.6529 40.4632 29.612 40.4678 29.5713 40.4736C29.5369 40.4786 29.5026 40.4849 29.4678 40.4883C29.3226 40.5023 29.1765 40.5024 29.0312 40.4883C28.9964 40.4849 28.9621 40.4786 28.9277 40.4736C28.887 40.4678 28.8461 40.4632 28.8057 40.4551C28.7793 40.4498 28.7536 40.4418 28.7275 40.4355C28.6825 40.4248 28.6372 40.4149 28.5928 40.4014C28.5576 40.3906 28.5237 40.3766 28.4893 40.3643C28.457 40.3527 28.4244 40.3422 28.3926 40.3291C28.3473 40.3104 28.3035 40.2891 28.2598 40.2676C28.2381 40.2569 28.2157 40.2477 28.1943 40.2363C28.1499 40.2127 28.107 40.1866 28.0645 40.1602C28.0446 40.1478 28.0244 40.1361 28.0049 40.123C27.8805 40.0402 27.7644 39.9461 27.6592 39.8408L12.6592 24.8408C11.7805 23.9621 11.7805 22.5379 12.6592 21.6592C13.5379 20.7805 14.9621 20.7805 15.8408 21.6592L27 32.8184V2.25C27 1.00736 28.0074 0 29.25 0Z" fill="currentColor"/></g></svg>