<svg xmlns="http://www.w3.org/2000/svg" viewBox="0 0 24 24" fill="none"><g transform="translate(2.25 1.749)"><path id="HousePlusVectors" d="M9.75 0C10.3181 0 10.8705 0.175523 11.332 0.5L11.5234 0.648438L11.5283 0.652344L18.5234 6.64844C18.8295 6.90678 19.0755 7.22947 19.2441 7.59277C19.4126 7.95595 19.5002 8.35159 19.5 8.75195V11.1016C19.5 11.5158 19.1642 11.8516 18.75 11.8516C18.3358 11.8516 18 11.5158 18 11.1016V8.75098C18.0001 8.56898 17.9604 8.38872 17.8838 8.22363C17.8072 8.05874 17.6955 7.91224 17.5566 7.79492L17.5518 7.79102L10.5566 1.79492L10.4688 1.72754C10.259 1.58013 10.0081 1.5 9.75 1.5C9.45493 1.5 9.16887 1.60463 8.94336 1.79492L1.94824 7.79102L1.94336 7.79492C1.80446 7.91224 1.6928 8.05874 1.61621 8.22363C1.5396 8.38872 1.49989 8.56898 1.5 8.75098V17.752C1.50008 18.0833 1.63194 18.4014 1.86621 18.6357C2.10062 18.8701 2.41856 19.002 2.75 19.002H6V11.752C6 11.2878 6.18451 10.8428 6.5127 10.5146C6.84088 10.1865 7.28587 10.002 7.75 10.002H11.75C12.0215 10.002 12.2893 10.0652 12.5322 10.1865C12.7752 10.308 12.9874 10.4848 13.1504 10.7021C13.3986 11.0335 13.3313 11.5035 13 11.752C12.6686 12.0005 12.1987 11.9329 11.9502 11.6016C11.9269 11.5706 11.896 11.5456 11.8613 11.5283C11.8267 11.5111 11.7887 11.502 11.75 11.502H7.75C7.6837 11.502 7.62013 11.5283 7.57324 11.5752C7.52636 11.6221 7.5 11.6856 7.5 11.752V19.002H10.0996C10.5137 19.002 10.8495 19.3379 10.8496 19.752C10.8494 20.166 10.5137 20.502 10.0996 20.502H2.75C2.02073 20.502 1.32137 20.2119 0.805665 19.6963C0.290091 19.1807 8.48641e-05 18.4811 5.27637e-07 17.752V8.75195C-0.000248071 8.35159 0.0873528 7.95595 0.25586 7.59277C0.424486 7.22947 0.670486 6.90678 0.976563 6.64844L7.97168 0.652344L7.97656 0.648438C8.47267 0.229839 9.10088 3.3738e-07 9.75 0ZM15.75 13.002C16.1642 13.002 16.5 13.3377 16.5 13.752V16.002H18.75C19.1642 16.002 19.5 16.3377 19.5 16.752C19.5 17.1662 19.1642 17.502 18.75 17.502H16.5V19.752C16.5 20.1662 16.1642 20.502 15.75 20.502C15.3358 20.502 15 20.1662 15 19.752V17.502H12.75C12.3358 17.502 12 17.1662 12 16.752C12 16.3377 12.3358 16.002 12.75 16.002H15V13.752C15 13.3377 15.3358 13.002 15.75 13.002Z" fill="currentColor"/></g></svg>