<svg xmlns="http://www.w3.org/2000/svg" viewBox="0 0 24 24" fill="none"><path id="Union" d="M12 1.75C17.6609 1.75 22.25 6.33908 22.25 12C22.25 17.6609 17.6609 22.25 12 22.25C6.33908 22.25 1.75 17.6609 1.75 12C1.75 6.33908 6.33908 1.75 12 1.75ZM12 3.25C7.16751 3.25 3.25 7.16751 3.25 12C3.25 16.8325 7.16751 20.75 12 20.75C16.8325 20.75 20.75 16.8325 20.75 12C20.75 7.16751 16.8325 3.25 12 3.25ZM12 15.4131C12.4141 15.4131 12.7498 15.749 12.75 16.1631C12.75 16.5773 12.4142 16.9131 12 16.9131C11.5858 16.9131 11.25 16.5773 11.25 16.1631C11.2502 15.749 11.5859 15.4131 12 15.4131ZM10.335 6.74121C10.9757 6.38764 11.7175 6.26063 12.4395 6.38086C13.1615 6.5012 13.8219 6.86193 14.3135 7.4043C14.805 7.94677 15.0986 8.63971 15.1475 9.37012C15.1486 9.38655 15.1494 9.40346 15.1494 9.41992C15.1493 11.3739 13.6529 12.2111 13.042 12.6475C12.878 12.7649 12.7217 13.0476 12.7217 13.3203V13.6201C12.7215 14.0342 12.3858 14.3701 11.9717 14.3701C11.5578 14.3699 11.2218 14.0341 11.2217 13.6201V13.3203C11.2217 12.5935 11.5881 11.8438 12.1699 11.4277C12.9534 10.8681 13.6386 10.4713 13.6484 9.44238C13.6167 9.05945 13.4605 8.69728 13.2021 8.41211C12.9375 8.12 12.5812 7.92516 12.1924 7.86035C11.8038 7.79579 11.4044 7.86437 11.0596 8.05469C10.7146 8.24519 10.4434 8.54676 10.291 8.91016C10.1307 9.29188 9.69143 9.47163 9.30957 9.31152C8.92799 9.15128 8.7484 8.71184 8.9082 8.33008C9.19123 7.65518 9.69429 7.09494 10.335 6.74121Z" fill="currentColor"/></svg>