<svg xmlns="http://www.w3.org/2000/svg" viewBox="0 0 24 24" fill="none"><g transform="translate(12 12) scale(0.9533) translate(-10.7521 -10.7524)"><path id="WrenchVectors" d="M13.4505 5.05369C13.2672 5.24062 13.1646 5.49194 13.1646 5.75369C13.1646 6.01544 13.2672 6.26676 13.4505 6.45369L15.0505 8.05369C15.2374 8.23692 15.4887 8.33955 15.7505 8.33955C16.0122 8.33955 16.2635 8.23692 16.4505 8.05369L19.5565 4.94869C19.8765 4.62669 20.4195 4.72869 20.5395 5.16669C20.8416 6.26557 20.8245 7.42776 20.4902 8.51728C20.156 9.60681 19.5183 10.5786 18.6519 11.3189C17.7854 12.0593 16.7261 12.5375 15.5977 12.6978C14.4694 12.858 13.3188 12.6936 12.2805 12.2237L4.37047 20.1337C3.97264 20.5314 3.43313 20.7548 2.87061 20.7547C2.3081 20.7546 1.76866 20.531 1.37097 20.1332C0.973275 19.7354 0.749906 19.1959 0.75 18.6333C0.750094 18.0708 0.973642 17.5314 1.37147 17.1337L9.28147 9.22369C8.81161 8.1854 8.64717 7.03477 8.8074 5.90644C8.96763 4.77811 9.44589 3.71874 10.1862 2.85231C10.9266 1.98587 11.8984 1.3482 12.9879 1.01392C14.0774 0.679633 15.2396 0.662558 16.3385 0.964692C16.7765 1.08469 16.8785 1.62669 16.5575 1.94869L13.4505 5.05369Z" stroke="currentColor" stroke-width="1.5" stroke-linecap="round" stroke-linejoin="round"/></g></svg>