<svg xmlns="http://www.w3.org/2000/svg" viewBox="0 0 24 24" fill="none"><g transform="translate(12 12) scale(0.9535) translate(-10.75 -8.75)"><path id="EmailVectors" d="M18.75 0C20.261 0 21.4854 1.21858 21.498 2.72656C21.4982 2.73178 21.499 2.73697 21.499 2.74219C21.499 2.74479 21.5 2.74739 21.5 2.75V14.75C21.5 16.2688 20.2688 17.5 18.75 17.5H2.75C1.23122 17.5 0 16.2688 0 14.75V2.7373C5.74226e-05 2.73372 0.000867668 2.73015 0.000976562 2.72656C0.0135693 1.21857 1.23904 0 2.75 0H18.75ZM11.1797 10.3643C10.9215 10.5448 10.5785 10.5448 10.3203 10.3643L1.5 4.18945V14.75C1.5 15.4404 2.05964 16 2.75 16H18.75C19.4404 16 20 15.4404 20 14.75V4.18945L11.1797 10.3643ZM2.75 1.5C2.18286 1.5 1.70465 1.87792 1.55176 2.39551L10.75 8.83496L19.9473 2.39551C19.7943 1.87805 19.317 1.5 18.75 1.5H2.75Z" fill="currentColor"/></g></svg>