<svg preserveAspectRatio="none" width="100%" height="100%" overflow="visible" style="display: block;" viewBox="0 0 21.5156 19.5137" fill="none" xmlns="http://www.w3.org/2000/svg">
<path id="TriangleAlertVectors" d="M10.7578 0C11.2443 0 11.7223 0.129112 12.1426 0.374023C12.5619 0.618399 12.9087 0.969648 13.1484 1.3916L21.1475 15.3887C21.3887 15.8065 21.5155 16.2812 21.5156 16.7637C21.5157 17.246 21.3894 17.7199 21.1484 18.1377C20.9074 18.5557 20.5602 18.903 20.1426 19.1445C19.725 19.386 19.251 19.5132 18.7686 19.5137H2.76758V19.5127C2.28523 19.5158 1.81006 19.3927 1.39063 19.1543C0.969377 18.9147 0.619196 18.568 0.375007 18.1494C0.130787 17.7308 0.00115778 17.2552 6.76163e-06 16.7705C-0.00106688 16.2857 0.125735 15.8085 0.368171 15.3887H0.369147L8.36719 1.3916C8.60693 0.969669 8.95377 0.618422 9.37305 0.374023C9.79331 0.129142 10.2714 3.35783e-05 10.7578 0ZM10.7578 1.5C10.5368 1.50003 10.3199 1.55871 10.1289 1.66992C9.9379 1.78123 9.77992 1.94146 9.67091 2.13379L9.66895 2.13574L1.66895 16.1357L1.66798 16.1387C1.5578 16.3295 1.49954 16.5463 1.50001 16.7666C1.50049 16.9868 1.55902 17.2033 1.66993 17.3936C1.78089 17.5838 1.94043 17.7417 2.13184 17.8506C2.32343 17.9595 2.54136 18.0157 2.76173 18.0137H18.7676L18.9307 18.0029C19.0926 17.9814 19.2492 17.928 19.3916 17.8457C19.5813 17.736 19.7391 17.5785 19.8486 17.3887C19.9582 17.1987 20.0157 16.983 20.0156 16.7637C20.0156 16.5444 19.9583 16.3286 19.8486 16.1387L19.8467 16.1357L11.8467 2.13574L11.8457 2.13379C11.7367 1.9415 11.5786 1.78124 11.3877 1.66992C11.1967 1.5586 10.9789 1.5 10.7578 1.5ZM10.7793 14.0137C11.1935 14.0137 11.5293 14.3495 11.5293 14.7637C11.5293 15.1779 11.1935 15.5137 10.7793 15.5137H10.7695C10.3553 15.5137 10.0195 15.1779 10.0195 14.7637C10.0195 14.3495 10.3553 14.0137 10.7695 14.0137H10.7793ZM10.7695 6.01367C11.1838 6.01367 11.5195 6.34946 11.5195 6.76367V10.7637C11.5195 11.1779 11.1838 11.5137 10.7695 11.5137C10.3553 11.5137 10.0195 11.1779 10.0195 10.7637V6.76367C10.0195 6.34946 10.3553 6.01368 10.7695 6.01367Z" fill="var(--fill-0, #4B5563)"/>
</svg>
