<svg xmlns="http://www.w3.org/2000/svg" viewBox="0 0 24 24" fill="none"><g transform="translate(12 12) scale(0.9535) translate(-9.75 -10.75)"><path id="CalendarNewVectors" d="M13.75 0C14.1642 0 14.5 0.335786 14.5 0.75V2H16.75C18.2688 2 19.5 3.23122 19.5 4.75V18.75C19.5 20.2688 18.2688 21.5 16.75 21.5H2.75C1.23122 21.5 0 20.2688 0 18.75V4.75C0 3.23122 1.23122 2 2.75 2H5V0.75C5 0.335786 5.33579 0 5.75 0C6.16421 0 6.5 0.335786 6.5 0.75V2H13V0.75C13 0.335786 13.3358 0 13.75 0ZM1.5 9.5V18.75C1.5 19.4404 2.05964 20 2.75 20H16.75C17.4404 20 18 19.4404 18 18.75V9.5H1.5ZM9.82715 12.0039C10.2051 12.0425 10.5 12.3618 10.5 12.75V16.75C10.5 17.1642 10.1642 17.5 9.75 17.5C9.33579 17.5 9 17.1642 9 16.75V13.5H8.75C8.33579 13.5 8 13.1642 8 12.75C8 12.3358 8.33579 12 8.75 12H9.75L9.82715 12.0039ZM2.75 3.5C2.05964 3.5 1.5 4.05964 1.5 4.75V8H18V4.75C18 4.05964 17.4404 3.5 16.75 3.5H14.5V4.75C14.5 5.16421 14.1642 5.5 13.75 5.5C13.3358 5.5 13 5.16421 13 4.75V3.5H6.5V4.75C6.5 5.16421 6.16421 5.5 5.75 5.5C5.33579 5.5 5 5.16421 5 4.75V3.5H2.75Z" fill="currentColor"/></g></svg>