<svg xmlns="http://www.w3.org/2000/svg" viewBox="0 0 24 24" fill="none"><g transform="translate(12 12) scale(0.9535) translate(-10.75 -9.2579)"><path id="heartVector" d="M0.75 6.26615C0.75002 5.15335 1.08759 4.06674 1.71813 3.14982C2.34867 2.2329 3.24252 1.52881 4.28161 1.13055C5.3207 0.732294 6.45616 0.658598 7.53801 0.919198C8.61987 1.1798 9.59722 1.76243 10.341 2.59015C10.3934 2.64617 10.4567 2.69082 10.5271 2.72135C10.5974 2.75188 10.6733 2.76764 10.75 2.76764C10.8267 2.76764 10.9026 2.75188 10.9729 2.72135C11.0433 2.69082 11.1066 2.64617 11.159 2.59015C11.9004 1.75705 12.878 1.16952 13.9616 0.905755C15.0452 0.641989 16.1835 0.7145 17.2249 1.11364C18.2663 1.51277 19.1614 2.21961 19.7911 3.14006C20.4208 4.0605 20.7553 5.15091 20.75 6.26615C20.75 8.55615 19.25 10.2662 17.75 11.7662L12.258 17.0792C12.0717 17.2932 11.8419 17.4651 11.584 17.5835C11.3262 17.7018 11.046 17.764 10.7623 17.7658C10.4785 17.7676 10.1976 17.709 9.93829 17.5939C9.67893 17.4788 9.44703 17.3098 9.258 17.0982L3.75 11.7662C2.25 10.2662 0.75 8.56615 0.75 6.26615Z" stroke="currentColor" stroke-width="1.5" stroke-linecap="round" stroke-linejoin="round"/></g></svg>