<svg preserveAspectRatio="none" width="100%" height="100%" overflow="visible" style="display: block;" viewBox="0 0 29.927 11.2794" fill="none" xmlns="http://www.w3.org/2000/svg">
<g id="House_2">
<path id="Vector" d="M14.9632 0L0 11.2794H5.90912V9.05216L14.9632 2.2272L24.0173 9.05216V11.2794H29.927L14.9632 0Z" fill="var(--fill-0, #102D50)"/>
<path id="Vector_2" d="M12.617 8.432H14.6432V10.4582H12.617V8.432ZM15.2832 5.87072H17.3094V7.89696H15.2832V5.87072ZM12.617 5.87072H14.6432V7.89696H12.617V5.87072ZM15.2832 8.432H17.3094V10.4582H15.2832V8.432Z" fill="var(--fill-0, #102D50)"/>
<path id="Vector_3" d="M14.9632 2.2272L5.90912 9.05152V11.2787H24.0173V9.05152L14.9632 2.2272ZM14.6432 10.4582H12.617V8.432H14.6432V10.4582ZM14.6432 7.89632H12.617V5.87008H14.6432V7.89632ZM17.3094 10.4582H15.2832V8.432H17.3094V10.4582ZM17.3094 7.89632H15.2832V5.87008H17.3094V7.89632Z" fill="var(--fill-0, #972328)"/>
</g>
</svg>
