<svg xmlns="http://www.w3.org/2000/svg" viewBox="0 0 24 24" fill="none"><g transform="translate(12 12) scale(0.8723) translate(-9.75 -11.7499)"><path id="LocationVectors" d="M9.75 0C12.3359 0 14.8161 1.02699 16.6445 2.85547C18.473 4.68395 19.5 7.16414 19.5 9.75C19.5 13.5513 17.0747 16.9841 14.7949 19.3906C13.6397 20.6101 12.4861 21.6028 11.623 22.29C11.1911 22.634 10.8306 22.9032 10.5762 23.0869C10.4489 23.1788 10.3481 23.2495 10.2783 23.2979C10.2436 23.3219 10.2161 23.3397 10.1973 23.3525C10.1878 23.3589 10.18 23.3647 10.1748 23.3682C10.1724 23.3698 10.1704 23.3711 10.1689 23.3721L10.167 23.373L10.166 23.374C9.94551 23.521 9.66672 23.5391 9.43164 23.4287L9.33398 23.374L9.33301 23.373L9.33105 23.3721C9.3296 23.3711 9.32762 23.3698 9.3252 23.3682C9.31997 23.3647 9.31216 23.3589 9.30273 23.3525C9.28389 23.3397 9.25639 23.3219 9.22168 23.2979C9.15193 23.2495 9.05109 23.1788 8.92383 23.0869C8.66944 22.9032 8.3089 22.634 7.87695 22.29C7.0139 21.6028 5.86033 20.6101 4.70508 19.3906C2.42533 16.9841 0 13.5513 0 9.75C3.85323e-08 7.16414 1.02699 4.68395 2.85547 2.85547C4.68395 1.02699 7.16414 0 9.75 0ZM9.75 1.5C7.56196 1.5 5.46319 2.36884 3.91602 3.91602C2.36884 5.46319 1.5 7.56196 1.5 9.75C1.5 12.9485 3.57476 16.0159 5.79492 18.3594C6.88941 19.5146 7.98622 20.4598 8.81055 21.1162C9.19246 21.4203 9.51562 21.6607 9.75 21.8311C9.98438 21.6607 10.3075 21.4203 10.6895 21.1162C11.5138 20.4598 12.6106 19.5146 13.7051 18.3594C15.9252 16.0159 18 12.9485 18 9.75C18 7.56196 17.1312 5.46319 15.584 3.91602C14.0368 2.36884 11.938 1.5 9.75 1.5ZM9.75 6C11.8211 6 13.5 7.67893 13.5 9.75C13.5 11.8211 11.8211 13.5 9.75 13.5C7.67893 13.5 6 11.8211 6 9.75C6 7.67893 7.67893 6 9.75 6ZM9.75 7.5C8.50736 7.5 7.5 8.50736 7.5 9.75C7.5 10.9926 8.50736 12 9.75 12C10.9926 12 12 10.9926 12 9.75C12 8.50736 10.9926 7.5 9.75 7.5Z" fill="currentColor"/></g></svg>