<svg preserveAspectRatio="none" width="100%" height="100%" overflow="visible" style="display: block;" viewBox="0 0 40.3443 12.9357" fill="none" xmlns="http://www.w3.org/2000/svg">
<g id="Text_1">
<path id="Vector" d="M1.74592 4.8544L1.4272 6.59264H0L1.4656 0.0947188H3.44768L4.96896 6.59264H3.50272L3.14496 4.8544H1.74528H1.74592ZM2.97984 3.9328C2.77184 2.82944 2.5728 1.78176 2.46912 1.04704H2.41792C2.37888 1.58272 2.10496 2.97408 1.92384 3.9328H2.97984ZM5.6416 0.0947188H7.04448V5.69664H9.33248L9.21344 6.59264H5.6416V0.0947188ZM9.90464 0.0947188H11.3075V5.69664H13.5955L13.4765 6.59264H9.90464V0.0947188ZM20.6029 4.17536C20.6029 3.07136 20.6195 1.696 20.647 0.951039H20.6336C20.4243 2.07872 19.9213 4.71104 19.5277 6.59264H18.2035C17.9098 4.90496 17.4016 2.1312 17.1942 0.942719H17.1667C17.1942 1.70048 17.2365 3.17056 17.2365 4.288V6.59264H15.9654V0.0947188H18.0557C18.4096 1.74656 18.7744 3.59744 18.8973 4.50816H18.9107C19.0592 3.58656 19.552 1.65312 19.9162 0.0947188H21.936V6.59264H20.6029V4.17536ZM24.5728 0.0947188V6.59264H23.1699V0.0947188H24.5728ZM29.9258 6.59264H28.832C28.7942 6.47808 28.7674 6.2432 28.7552 6.10496C28.503 6.53696 27.975 6.688 27.3875 6.688C26.0486 6.688 25.6173 5.99552 25.6173 4.89472V1.84256C25.6173 0.780799 26.1958 0 27.7766 0C29.6877 0 29.8886 1.00352 29.8886 1.70112V1.91232H28.4858V1.65248C28.4858 1.31008 28.416 0.913918 27.7747 0.913918C27.264 0.913918 27.0458 1.16672 27.0458 1.68512V5.00928C27.0458 5.5296 27.2563 5.8016 27.7638 5.8016C28.3718 5.8016 28.5203 5.43808 28.5203 4.76992V3.82144H27.7248V2.96H29.9251V6.59456L29.9258 6.59264ZM31.0682 0.0947188H32.471V2.65984H33.9814V0.0947188H35.3843V6.59264H33.9814V3.58144H32.471V6.59264H31.0682V0.0947188ZM37.472 1.02464H36.0115V0.0947188H40.3443V1.02464H38.8749V6.59264H37.472V1.02464Z" fill="var(--fill-0, #102D50)"/>
<path id="Vector_2" d="M3.17568 11.3805V11.5738C3.17568 12.1408 3.0432 12.9357 1.57504 12.9357C0.289281 12.9357 0.0166402 12.3616 0.0166402 11.6051V9.10464C0.0166402 8.3392 0.5024 7.83168 1.59296 7.83168C2.89536 7.83168 3.14368 8.448 3.14368 9.13536V9.35744H2.0704V9.04576C2.0704 8.71616 1.96224 8.52864 1.5904 8.52864C1.21856 8.52864 1.10656 8.70912 1.10656 9.04832V11.6704C1.10656 11.9936 1.1968 12.2451 1.6032 12.2451C2.0096 12.2451 2.09216 12.0269 2.09216 11.6576V11.3805H3.1744H3.17568ZM7.14624 9.22048V11.536C7.14624 12.4864 6.58176 12.9357 5.40544 12.9357C4.22912 12.9357 3.76896 12.4749 3.76896 11.5494V9.21472C3.76896 8.26496 4.4384 7.83168 5.47328 7.83168C6.50816 7.83168 7.14624 8.26624 7.14624 9.22048ZM4.85888 9.1456V11.6397C4.85888 12.0518 5.06688 12.2451 5.45344 12.2451C5.86944 12.2451 6.05568 12.0646 6.05568 11.6288V9.13984C6.05568 8.74624 5.88672 8.52864 5.45216 8.52864C5.06624 8.52864 4.85888 8.72576 4.85888 9.1456ZM7.9392 12.8634V7.904H9.17952C9.45664 8.60352 10.2848 11.0515 10.3584 11.3146H10.3699C10.3206 10.7046 10.3181 10.007 10.3181 9.19168V7.904H11.3062V12.8634H10.1133C9.8944 12.2707 8.97024 9.55136 8.90048 9.34272H8.89024C8.9408 9.94304 8.93696 10.615 8.93696 11.5072V12.8634H7.9392ZM12.8986 8.6144H11.7837V7.90464H15.0906V8.6144H13.9693V12.8634H12.8986V8.6144ZM16.6381 10.6458V12.8634H15.5674V7.904H17.0502C18.1069 7.904 18.7302 8.20608 18.7302 9.09888V9.28768C18.7302 10.0499 18.2925 10.2438 18.0237 10.3226C18.4288 10.4582 18.6605 10.6669 18.6605 11.3395C18.6605 11.7568 18.6502 12.5626 18.7238 12.8634H17.6896C17.5974 12.5638 17.6166 11.7491 17.6166 11.3888C17.6166 10.784 17.5078 10.6458 16.8864 10.6458H16.6381ZM16.6381 10.0141H16.8838C17.4502 10.0141 17.6589 9.86176 17.6589 9.32224V9.152C17.6589 8.76864 17.5482 8.53504 16.9408 8.53504H16.6381V10.0134V10.0141ZM20.5248 11.5366L20.2816 12.8634H19.1923L20.3104 7.904H21.8234L22.9843 12.8634H21.865L21.5917 11.5366H20.5235H20.5248ZM21.4662 10.8333C21.3075 9.99104 21.1558 9.19168 21.0765 8.63104H21.0374C21.0074 9.03936 20.7987 10.1018 20.6605 10.8333H21.4662ZM26.5914 11.3805V11.5738C26.5914 12.1408 26.4589 12.9357 24.9914 12.9357C23.7056 12.9357 23.433 12.3616 23.433 11.6051V9.10464C23.433 8.3392 23.9187 7.83168 25.0093 7.83168C26.3117 7.83168 26.56 8.448 26.56 9.13536V9.35744H25.4867V9.04576C25.4867 8.71616 25.3786 8.52864 25.0067 8.52864C24.6349 8.52864 24.5229 8.70912 24.5229 9.04832V11.6704C24.5229 11.9936 24.6131 12.2451 25.0195 12.2451C25.4259 12.2451 25.5085 12.0269 25.5085 11.6576V11.3805H26.5907H26.5914ZM28.0211 8.6144H26.9062V7.90464H30.2131V8.6144H29.0918V12.8634H28.0211V8.6144ZM31.7606 7.904V12.8634H30.6899V7.904H31.7606ZM32.7059 12.8634V7.904H33.9462C34.2234 8.60352 35.0515 11.0515 35.1251 11.3146H35.1366C35.0874 10.7046 35.0848 10.007 35.0848 9.19168V7.904H36.073V12.8634H34.88C34.6611 12.2707 33.737 9.55136 33.6672 9.34272H33.657C33.7075 9.94304 33.7037 10.615 33.7037 11.5072V12.8634H32.7059ZM40.1485 12.8634H39.3139C39.2851 12.7763 39.2646 12.5965 39.255 12.4909C39.0624 12.8205 38.6598 12.9357 38.2112 12.9357C37.1891 12.9357 36.8602 12.4077 36.8602 11.5667V9.23776C36.8602 8.42752 37.3018 7.83168 38.5082 7.83168C39.9661 7.83168 40.1203 8.59712 40.1203 9.1296V9.29088H39.0496V9.09248C39.0496 8.83072 38.9965 8.52864 38.5069 8.52864C38.1171 8.52864 37.9501 8.72128 37.9501 9.11744V11.6544C37.9501 12.0512 38.1107 12.2586 38.4979 12.2586C38.9619 12.2586 39.0752 11.9808 39.0752 11.4714V10.7475H38.4678V10.0902H40.1472V12.864L40.1485 12.8634Z" fill="var(--fill-0, #972328)"/>
</g>
</svg>
