<svg xmlns="http://www.w3.org/2000/svg" viewBox="0 0 24 24" fill="none"><g transform="translate(2.25 1.75)"><path id="HouseVectors" d="M9.75 0C10.3186 0 10.8713 0.175956 11.333 0.500977L11.5254 0.649414L11.5293 0.65332L18.5244 6.64941C18.8298 6.9076 19.0758 7.23 19.2441 7.59277C19.4123 7.95532 19.5 8.35036 19.5 8.75V17.75C19.4999 18.4792 19.2099 19.1797 18.6943 19.6953C18.1787 20.2107 17.4791 20.5 16.75 20.5H2.75C2.02089 20.5 1.32134 20.2107 0.805664 19.6953C0.290054 19.1797 0.000129374 18.4792 0 17.75V8.75C2.84499e-08 8.35036 0.0877163 7.95532 0.255859 7.59277C0.424183 7.23001 0.669209 6.9076 0.974609 6.64941L7.9707 0.65332L7.97461 0.649414C8.47097 0.229914 9.10012 0 9.75 0ZM9.75 1.5C9.45632 1.5 9.17129 1.60245 8.94629 1.79102L1.94727 7.79199L1.94336 7.79492C1.80466 7.91221 1.6927 8.05888 1.61621 8.22363C1.53984 8.38837 1.5 8.56842 1.5 8.75V17.75C1.50013 18.0813 1.63191 18.4005 1.86621 18.6348C2.10058 18.8689 2.41871 19 2.75 19H6V11.75C6 11.2859 6.18451 10.8409 6.5127 10.5127C6.84088 10.1845 7.28587 10 7.75 10H11.75C12.2141 10 12.6591 10.1845 12.9873 10.5127C13.3155 10.8409 13.5 11.2859 13.5 11.75V19H16.75C17.0813 19 17.3994 18.8689 17.6338 18.6348C17.8681 18.4005 17.9999 18.0813 18 17.75V8.75C18 8.56842 17.9602 8.38837 17.8838 8.22363C17.8073 8.05888 17.6953 7.91221 17.5566 7.79492L17.5527 7.79199L10.5527 1.79199V1.79102C10.3278 1.60275 10.0434 1.5 9.75 1.5ZM7.75 11.5C7.6837 11.5 7.62013 11.5264 7.57324 11.5732C7.52636 11.6201 7.5 11.6837 7.5 11.75V19H12V11.75C12 11.6837 11.9736 11.6201 11.9268 11.5732C11.8799 11.5264 11.8163 11.5 11.75 11.5H7.75Z" fill="currentColor"/></g></svg>