<svg xmlns="http://www.w3.org/2000/svg" viewBox="0 0 24 24" fill="none"><g transform="translate(2.25 1.7495)"><path id="HouseVectors" d="M9.75 0C10.3186 0 10.8713 0.176932 11.333 0.501953L11.5254 0.650391L11.5293 0.654297L18.5244 6.65039C18.8298 6.90858 19.0758 7.23097 19.2441 7.59375C19.4123 7.9563 19.5 8.35134 19.5 8.75098V17.751C19.4999 18.4801 19.2099 19.1807 18.6943 19.6963C18.1787 20.2117 17.4791 20.501 16.75 20.501H13.5V11.834C13.4999 11.3664 13.3286 10.9071 13.0078 10.5596C12.6851 10.2101 12.2343 10.001 11.75 10.001H7.75C7.26571 10.001 6.81488 10.2101 6.49219 10.5596C6.17142 10.9071 6.00008 11.3664 6 11.834V20.501H2.75C2.02089 20.501 1.32134 20.2117 0.805664 19.6963C0.290054 19.1807 0.000129374 18.4801 0 17.751V8.75098C2.84499e-08 8.35134 0.0877163 7.9563 0.255859 7.59375C0.424183 7.23099 0.669209 6.90857 0.974609 6.65039L7.9707 0.654297L7.97461 0.650391C8.47097 0.23089 9.10012 0 9.75 0ZM11.75 11.501C11.7961 11.501 11.8539 11.5204 11.9062 11.5771C11.9603 11.6359 11.9999 11.7273 12 11.834V20.501H7.5V11.834C7.50008 11.7273 7.53967 11.6359 7.59375 11.5771C7.64612 11.5204 7.70395 11.501 7.75 11.501H11.75Z" fill="currentColor"/></g></svg>