<svg xmlns="http://www.w3.org/2000/svg" viewBox="0 0 24 24" fill="none"><g transform="translate(2.25 1.7495)"><path id="HouseVectors" d="M9.75 0C10.3186 0 10.8713 0.176932 11.333 0.501953L11.5254 0.650391L11.5293 0.654297L18.5244 6.65039C18.8298 6.90858 19.0758 7.23097 19.2441 7.59375C19.4123 7.9563 19.5 8.35134 19.5 8.75098V17.751C19.4999 18.4801 19.2099 19.1807 18.6943 19.6963C18.1787 20.2117 17.4791 20.501 16.75 20.501H2.75C2.02089 20.501 1.32134 20.2117 0.805664 19.6963C0.290054 19.1807 0.000129374 18.4801 0 17.751V8.75098C2.84499e-08 8.35134 0.0877163 7.9563 0.255859 7.59375C0.424183 7.23099 0.669209 6.90857 0.974609 6.65039L7.9707 0.654297L7.97461 0.650391C8.47097 0.23089 9.10012 0 9.75 0ZM9.75 1.50098C9.45632 1.50098 9.17129 1.60342 8.94629 1.79199L1.94727 7.79297L1.94336 7.7959C1.80466 7.91318 1.6927 8.05986 1.61621 8.22461C1.53984 8.38935 1.5 8.56939 1.5 8.75098V17.751C1.50013 18.0823 1.63191 18.4014 1.86621 18.6357C2.10058 18.8699 2.41871 19.001 2.75 19.001H6V11.751C6 11.2868 6.18451 10.8419 6.5127 10.5137C6.84088 10.1855 7.28587 10.001 7.75 10.001H11.75C12.2141 10.001 12.6591 10.1855 12.9873 10.5137C13.3155 10.8419 13.5 11.2868 13.5 11.751V19.001H16.75C17.0813 19.001 17.3994 18.8699 17.6338 18.6357C17.8681 18.4014 17.9999 18.0823 18 17.751V8.75098C18 8.56939 17.9602 8.38935 17.8838 8.22461C17.8073 8.05986 17.6953 7.91318 17.5566 7.7959L17.5527 7.79297L10.5527 1.79297V1.79199C10.3278 1.60373 10.0434 1.50098 9.75 1.50098ZM7.75 11.501C7.6837 11.501 7.62013 11.5273 7.57324 11.5742C7.52636 11.6211 7.5 11.6847 7.5 11.751V19.001H12V11.751C12 11.6847 11.9736 11.6211 11.9268 11.5742C11.8799 11.5273 11.8163 11.501 11.75 11.501H7.75Z" fill="currentColor"/></g></svg>