<svg xmlns="http://www.w3.org/2000/svg" viewBox="0 0 24 24" fill="none"><g transform="translate(12 12) scale(0.9535) translate(-10.75 -10.75)"><path id="MoistureVectors" d="M6.25 9C9.70178 9 12.5 11.7982 12.5 15.25C12.5 18.7018 9.70178 21.5 6.25 21.5C2.79822 21.5 0 18.7018 0 15.25C0 11.7982 2.79822 9 6.25 9ZM6.25 10.5C3.62665 10.5 1.5 12.6266 1.5 15.25C1.5 17.8734 3.62665 20 6.25 20C8.87335 20 11 17.8734 11 15.25C11 12.6266 8.87335 10.5 6.25 10.5ZM5.50195 13.1279C5.84119 13.0083 6.20429 12.9719 6.56055 13.0215C6.91681 13.0711 7.25618 13.2053 7.5498 13.4131C7.84344 13.621 8.08375 13.8972 8.24902 14.2168C8.41405 14.5362 8.5001 14.8914 8.5 15.251C8.49944 15.6647 8.16383 16 7.75 16C7.36194 15.9999 7.04254 15.705 7.00391 15.3271L7 15.25C7 15.1303 6.97096 15.0117 6.91602 14.9053C6.86098 14.7989 6.78128 14.7069 6.68359 14.6377C6.58569 14.5684 6.47231 14.5234 6.35352 14.5068C6.2347 14.4903 6.11313 14.5031 6 14.543C5.60974 14.6802 5.18186 14.475 5.04395 14.085C4.90617 13.6944 5.11145 13.2658 5.50195 13.1279ZM17.25 3C19.5972 3 21.5 4.90279 21.5 7.25C21.5 9.59721 19.5972 11.5 17.25 11.5C14.9028 11.5 13 9.59721 13 7.25C13 4.90279 14.9028 3 17.25 3ZM17.25 4.5C15.7312 4.5 14.5 5.73122 14.5 7.25C14.5 8.76878 15.7312 10 17.25 10C18.7688 10 20 8.76878 20 7.25C20 5.73122 18.7688 4.5 17.25 4.5ZM6.25 0C8.04493 0 9.5 1.45507 9.5 3.25C9.5 5.04493 8.04493 6.5 6.25 6.5C4.45507 6.5 3 5.04493 3 3.25C3 1.45507 4.45507 0 6.25 0ZM6.25 1.5C5.2835 1.5 4.5 2.2835 4.5 3.25C4.5 4.2165 5.2835 5 6.25 5C7.2165 5 8 4.2165 8 3.25C8 2.2835 7.2165 1.5 6.25 1.5Z" fill="currentColor"/></g></svg>