<svg xmlns="http://www.w3.org/2000/svg" viewBox="0 0 24 24" fill="none"><g transform="translate(12 12) scale(0.9535) translate(-10.0984 -10.75)"><path id="PlanningFileVectors" d="M13.75 0C14.1642 0 14.5 0.335786 14.5 0.75V2H16.75C17.4793 2 18.1786 2.28994 18.6943 2.80566C19.2101 3.32139 19.5 4.02065 19.5 4.75V9.3418C19.5 9.75601 19.1642 10.0918 18.75 10.0918C18.3901 10.0918 18.0903 9.83815 18.0176 9.5H1.5V18.75C1.5 19.0815 1.63179 19.3994 1.86621 19.6338C2.10063 19.8682 2.41848 20 2.75 20H8.75C9.16421 20 9.5 20.3358 9.5 20.75C9.5 21.1642 9.16421 21.5 8.75 21.5H2.75C2.02065 21.5 1.32139 21.2101 0.805664 20.6943C0.289939 20.1786 0 19.4793 0 18.75V4.75C0 4.02065 0.289939 3.32139 0.805664 2.80566C1.32139 2.28994 2.02065 2 2.75 2H5V0.75C5 0.335786 5.33579 0 5.75 0C6.16421 0 6.5 0.335786 6.5 0.75V2H13V0.75C13 0.335786 13.3358 0 13.75 0ZM13.9326 12.3613C14.3152 12.203 14.7545 12.3852 14.9131 12.7676L15.0371 13.0684C15.2679 13.0239 15.5062 13 15.75 13C15.9941 13 16.2327 13.0238 16.4639 13.0684L16.5889 12.7676C16.7478 12.3853 17.1869 12.2036 17.5693 12.3623C17.9511 12.5212 18.1326 12.9597 17.9746 13.3418L17.8486 13.6426C18.2456 13.9112 18.5887 14.2534 18.8574 14.6504L19.1592 14.5264C19.5417 14.3681 19.9811 14.5492 20.1396 14.9316C20.2981 15.3141 20.1157 15.7524 19.7334 15.9111L19.4307 16.0361C19.4752 16.2673 19.5 16.5058 19.5 16.75C19.5 16.9939 19.4751 17.232 19.4307 17.4629L19.7334 17.5889C20.1155 17.7476 20.2979 18.186 20.1396 18.5684C19.981 18.9506 19.5416 19.1327 19.1592 18.9746L18.8574 18.8486C18.5886 19.2459 18.2459 19.5886 17.8486 19.8574L17.9736 20.1602C18.1312 20.5426 17.9496 20.9813 17.5674 21.1396C17.1848 21.2978 16.7454 21.1157 16.5869 20.7334L16.4619 20.4316C16.2314 20.476 15.9935 20.5 15.75 20.5C15.5058 20.5 15.2673 20.4752 15.0361 20.4307L14.9111 20.7334C14.7524 21.1156 14.3141 21.298 13.9316 21.1396C13.5492 20.9811 13.3681 20.5417 13.5264 20.1592L13.6504 19.8574C13.2534 19.5887 12.9112 19.2456 12.6426 18.8486L12.3418 18.9746C11.9597 19.1326 11.5212 18.9511 11.3623 18.5693C11.2036 18.1869 11.3853 17.7478 11.7676 17.5889L12.0684 17.4639C12.0238 17.2327 12 16.9941 12 16.75C12 16.5059 12.0238 16.2673 12.0684 16.0361L11.7676 15.9111C11.3853 15.7523 11.2037 15.3141 11.3623 14.9316C11.521 14.5493 11.9594 14.368 12.3418 14.5264L12.6416 14.6504C12.9103 14.2533 13.2533 13.9103 13.6504 13.6416L13.5264 13.3418C13.3683 12.9592 13.5502 12.5198 13.9326 12.3613ZM15.75 14.5C14.5074 14.5 13.5 15.5074 13.5 16.75C13.5 17.9926 14.5074 19 15.75 19C16.9926 19 18 17.9926 18 16.75C18 15.5074 16.9926 14.5 15.75 14.5ZM2.75 3.5C2.41848 3.5 2.10063 3.63179 1.86621 3.86621C1.63179 4.10063 1.5 4.41848 1.5 4.75V8H18V4.75C18 4.41848 17.8682 4.10063 17.6338 3.86621C17.4288 3.6612 17.16 3.53436 16.874 3.50586L16.75 3.5H14.5V4.75C14.5 5.16421 14.1642 5.5 13.75 5.5C13.3358 5.5 13 5.16421 13 4.75V3.5H6.5V4.75C6.5 5.16421 6.16421 5.5 5.75 5.5C5.33579 5.5 5 5.16421 5 4.75V3.5H2.75Z" fill="currentColor"/></g></svg>