<svg xmlns="http://www.w3.org/2000/svg" viewBox="0 0 24 24" fill="none"><g transform="translate(12 12) scale(0.9559) translate(-10.7232 -10.7051)"><path id="PhoneVectors" d="M20.6526 15.6501V18.6501C20.654 18.9305 20.5965 19.208 20.4837 19.4647C20.3709 19.7213 20.2054 19.9514 19.998 20.14C19.7905 20.3286 19.5458 20.4715 19.2795 20.5594C19.0133 20.6472 18.7316 20.6782 18.4526 20.6501C15.3834 20.3018 12.4382 19.2401 9.85262 17.5501C7.43645 16.0148 5.38796 13.9663 3.85262 11.5501C2.14792 8.93505 1.08569 5.95395 0.752622 2.85013C0.739157 2.58741 0.777653 2.32461 0.865906 2.07679C0.954159 1.82898 1.09044 1.601 1.26693 1.40593C1.44342 1.21086 1.65667 1.05252 1.89445 0.939988C2.13223 0.827455 2.38987 0.762936 2.65262 0.750128H5.65262C6.13495 0.744675 6.603 0.913723 6.97053 1.22612C7.33806 1.53852 7.5803 1.97322 7.65262 2.45013C7.77965 3.40687 8.01447 4.34617 8.35262 5.25013C8.47889 5.61132 8.4989 6.00116 8.41028 6.37338C8.32165 6.7456 8.12811 7.08459 7.85262 7.35013L6.75262 8.35013C8.17618 10.8537 10.2491 12.9266 12.7526 14.3501L14.0526 13.0501C14.3182 12.7746 14.6571 12.5811 15.0294 12.4925C15.4016 12.4038 15.7914 12.4239 16.1526 12.5501C17.0566 12.8883 17.9959 13.1231 18.9526 13.2501C19.2267 13.2855 19.4904 13.3773 19.7272 13.5197C19.9641 13.6622 20.1688 13.8521 20.3285 14.0776C20.4882 14.3031 20.5995 14.5593 20.6553 14.8299C20.7111 15.1006 20.7102 15.3798 20.6526 15.6501Z" stroke="currentColor" stroke-width="1.5" stroke-linecap="round" stroke-linejoin="round"/></g></svg>