<svg xmlns="http://www.w3.org/2000/svg" viewBox="0 0 24 24" fill="none"><g transform="translate(12 12) scale(0.9536) translate(-10.7487 -10.2484)"><path id="Union" d="M10.7567 18.9969C11.1709 18.9969 11.5067 19.3327 11.5067 19.7469C11.5066 20.161 11.1709 20.4968 10.7567 20.4969H10.747C10.3328 20.4969 9.99709 20.161 9.99698 19.7469C9.99698 19.3326 10.3328 18.9969 10.747 18.9969H10.7567ZM6.75674 16.9969C7.17092 16.9969 7.50674 17.3327 7.50674 17.7469C7.50663 18.161 7.17085 18.4968 6.75674 18.4969H6.74698C6.33283 18.4969 5.99709 18.161 5.99698 17.7469C5.99698 17.3326 6.33276 16.9969 6.74698 16.9969H6.75674ZM14.7567 16.9969C15.1709 16.9969 15.5067 17.3327 15.5067 17.7469C15.5066 18.161 15.1709 18.4968 14.7567 18.4969H14.747C14.3328 18.4969 13.9971 18.161 13.997 17.7469C13.997 17.3326 14.3328 16.9969 14.747 16.9969H14.7567ZM10.747 12.9969C11.1612 12.9969 11.497 13.3327 11.497 13.7469V15.7469C11.4969 16.161 11.1611 16.4968 10.747 16.4969C10.3328 16.4969 9.99709 16.161 9.99698 15.7469V13.7469C9.99698 13.3326 10.3328 12.9969 10.747 12.9969ZM7.1376 0.0242057C8.30957 -0.0686241 9.4876 0.106309 10.5819 0.535924C11.6763 0.96569 12.6592 1.63912 13.455 2.50467C14.1226 3.23099 14.6428 4.07791 14.9921 4.99686H16.247C17.3732 4.99682 18.4703 5.35924 19.3749 6.03007C20.2795 6.70101 20.9445 7.64568 21.2714 8.72342C21.5982 9.80119 21.5698 10.956 21.1903 12.0164C20.8107 13.0767 20.1005 13.9875 19.164 14.6131C18.8198 14.8429 18.3542 14.7498 18.1239 14.406C17.8939 14.0616 17.9865 13.5951 18.331 13.365C18.9997 12.9182 19.5071 12.2678 19.7782 11.5105C20.0492 10.7533 20.07 9.92861 19.8368 9.15897C19.6033 8.38921 19.1274 7.71439 18.4814 7.23514C17.8352 6.75599 17.0514 6.49686 16.247 6.49686H14.4569C14.1257 6.4967 13.8332 6.27901 13.7382 5.96171C13.4669 5.05323 12.9921 4.21735 12.3505 3.51932C11.7089 2.82158 10.9164 2.27893 10.0341 1.93241C9.15144 1.58587 8.20104 1.44441 7.25577 1.51932C6.31042 1.5943 5.39412 1.88367 4.57705 2.36503C3.76019 2.84634 3.06364 3.50728 2.53994 4.29764C2.01621 5.08821 1.67928 5.98842 1.55459 6.9285C1.43006 7.86838 1.52072 8.82485 1.82022 9.7244C2.11983 10.6239 2.61996 11.4443 3.28311 12.1219C3.57231 12.4179 3.56814 12.8928 3.27237 13.1824C2.97649 13.472 2.50061 13.4663 2.21084 13.1707C1.38854 12.3305 0.767855 11.3135 0.39639 10.198C0.0250079 9.08255 -0.0871705 7.89672 0.0672887 6.73124C0.221891 5.56559 0.639581 4.44979 1.28897 3.46952C1.93846 2.48918 2.80311 1.66899 3.81631 1.07206C4.82937 0.475328 5.96553 0.117161 7.1376 0.0242057ZM6.74698 10.9969C7.16116 10.9969 7.49698 11.3327 7.49698 11.7469V13.7469C7.49687 14.161 7.16109 14.4968 6.74698 14.4969C6.33283 14.4969 5.99709 14.161 5.99698 13.7469V11.7469C5.99698 11.3326 6.33276 10.9969 6.74698 10.9969ZM14.747 10.9969C15.1612 10.9969 15.497 11.3327 15.497 11.7469V13.7469C15.4969 14.161 15.1611 14.4968 14.747 14.4969C14.3328 14.4969 13.9971 14.161 13.997 13.7469V11.7469C13.997 11.3326 14.3328 10.9969 14.747 10.9969Z" fill="currentColor"/></g></svg>