<svg xmlns="http://www.w3.org/2000/svg" viewBox="0 0 24 24" fill="none"><g transform="translate(12 12) scale(0.9537) translate(-10.7475 -10.2476)"><path id="HammerVectors" d="M11.5957 0.00878906C13.2634 0.0918138 14.8458 0.790412 16.0322 1.97656L17.6895 3.63379C18.2051 4.14938 18.495 4.84891 18.4951 5.57812V5.92188L18.501 6.04492C18.5294 6.33123 18.6561 6.60048 18.8613 6.80566L20.2461 8.19043C20.5406 7.92732 20.9927 7.937 21.2754 8.21973C21.5683 8.51262 21.5683 8.98738 21.2754 9.28027L17.2754 13.2803C16.9825 13.5732 16.5077 13.5732 16.2148 13.2803C15.9321 12.9975 15.9224 12.5455 16.1855 12.251L14.8008 10.8662C14.5975 10.6628 14.3312 10.5367 14.0479 10.5068L4.90234 19.6533C4.63578 19.9199 4.319 20.132 3.9707 20.2764C3.62247 20.4206 3.24899 20.495 2.87207 20.4951C2.11067 20.4952 1.38037 20.1925 0.841797 19.6543C0.303164 19.1158 0.000126918 18.3847 3.86651e-10 17.623C-1.24874e-05 16.8616 0.302468 16.1313 0.84082 15.5928L9.99512 6.43848V6.23535C9.99505 4.8433 9.44219 3.5079 8.45801 2.52344L7.21484 1.28027C7.00036 1.06579 6.93572 0.743129 7.05176 0.462891C7.16784 0.182635 7.44177 0 7.74512 0H11.2617L11.5957 0.00878906ZM1.90137 16.6533C1.64431 16.9105 1.49999 17.2594 1.5 17.623C1.50006 17.9868 1.64506 18.3356 1.90234 18.5928C2.15962 18.8499 2.50832 18.9952 2.87207 18.9951C3.05197 18.9951 3.23027 18.9594 3.39648 18.8906C3.56287 18.8217 3.71446 18.7202 3.8418 18.5928L12.1846 10.25L10.2441 8.30957L1.90137 16.6533ZM9.55371 1.5C10.7967 2.76217 11.495 4.46255 11.4951 6.23535V7.43945L13.0557 9H13.917C14.6462 9.00016 15.3457 9.28999 15.8613 9.80566L17.2451 11.1895L19.1846 9.25L17.8008 7.86621C17.2851 7.35062 16.9953 6.65109 16.9951 5.92188V5.57812C16.995 5.2881 16.8942 5.0085 16.7119 4.78613L16.6289 4.69434L14.9717 3.03711C14.049 2.11472 12.8184 1.5715 11.5215 1.50684L11.2607 1.5H9.55371Z" fill="currentColor"/></g></svg>