<svg xmlns="http://www.w3.org/2000/svg" viewBox="0 0 24 24" fill="none"><g transform="translate(12 12) scale(0.9532) translate(-10.753 -10.749)"><path id="BadgeCheckVectors" d="M10.7607 0C11.558 3.20597e-05 12.3427 0.20108 13.042 0.583984C13.5925 0.885459 14.0753 1.29309 14.4658 1.78027C15.09 1.70851 15.7244 1.7597 16.3311 1.93555C17.1002 2.15858 17.8009 2.57241 18.3672 3.13867C18.9336 3.70511 19.3473 4.40641 19.5703 5.17578C19.746 5.78204 19.7972 6.41531 19.7256 7.03906C20.2131 7.4297 20.6212 7.913 20.9229 8.46387C21.3057 9.16317 21.5058 9.94786 21.5059 10.7451C21.5059 11.5424 21.3057 12.3271 20.9229 13.0264C20.6212 13.5772 20.2121 14.0596 19.7246 14.4502C19.796 15.0733 19.7457 15.7059 19.5703 16.3115C19.3478 17.0797 18.935 17.7796 18.3701 18.3457C17.8053 18.9117 17.1064 19.3257 16.3389 19.5498C15.7336 19.7265 15.1008 19.778 14.4775 19.708C14.0869 20.1979 13.6039 20.6089 13.0518 20.9121C12.3513 21.2966 11.5647 21.498 10.7656 21.498C9.96657 21.498 9.17993 21.2967 8.47949 20.9121C7.92755 20.609 7.44427 20.1987 7.05371 19.709C6.43133 19.78 5.79924 19.7299 5.19434 19.5547C4.42624 19.3322 3.72621 18.9193 3.16016 18.3545C2.5942 17.7897 2.18013 17.0908 1.95605 16.3232C1.77948 15.7183 1.72701 15.0858 1.79688 14.4629C1.30536 14.0725 0.893244 13.5889 0.588867 13.0361C0.202519 12.3344 0 11.5462 0 10.7451C1.64015e-05 9.94405 0.202511 9.15584 0.588867 8.4541C0.893357 7.90111 1.30513 7.41686 1.79688 7.02637C1.72721 6.40378 1.77959 5.77158 1.95605 5.16699C2.18016 4.39947 2.59419 3.70055 3.16016 3.13574C3.72622 2.57089 4.42622 2.15802 5.19434 1.93555C5.79951 1.76031 6.43203 1.70916 7.05469 1.78027C7.44524 1.29288 7.92879 0.885568 8.47949 0.583984C9.17877 0.20113 9.96351 3.23247e-05 10.7607 0ZM10.7607 1.5C10.2153 1.50003 9.67861 1.63751 9.2002 1.89941C8.72171 2.16141 8.31635 2.53943 8.02246 2.99902C7.85254 3.26477 7.53436 3.39608 7.22656 3.32715C6.69275 3.20752 6.13679 3.2248 5.61133 3.37695C5.08597 3.5292 4.60692 3.81189 4.21973 4.19824C3.83263 4.58468 3.54975 5.06282 3.39648 5.58789C3.24318 6.11316 3.22419 6.66895 3.34277 7.20312C3.41109 7.51164 3.2787 7.82998 3.01172 7.99902C2.54873 8.29208 2.16763 8.69776 1.90332 9.17773C1.63898 9.65786 1.50002 10.197 1.5 10.7451C1.5 11.2932 1.63897 11.8323 1.90332 12.3125C2.16762 12.7925 2.54873 13.1981 3.01172 13.4912C3.27881 13.6603 3.41127 13.9795 3.34277 14.2881C3.22429 14.8221 3.24326 15.3773 3.39648 15.9023C3.5498 16.4276 3.83243 16.9065 4.21973 17.293C4.60697 17.6794 5.08588 17.962 5.61133 18.1143C6.13681 18.2664 6.69274 18.2827 7.22656 18.1631C7.5348 18.0941 7.85371 18.2258 8.02344 18.4922C8.31694 18.9535 8.72284 19.3335 9.20215 19.5967C9.68133 19.8597 10.219 19.998 10.7656 19.998C11.3124 19.998 11.8508 19.8598 12.3301 19.5967C12.8093 19.3335 13.2144 18.9535 13.5078 18.4922C13.6772 18.2261 13.9958 18.0947 14.3037 18.1631C14.8376 18.2815 15.393 18.2635 15.918 18.1104C16.4432 17.957 16.9221 17.6734 17.3086 17.2861C17.695 16.8988 17.9777 16.42 18.1299 15.8945C18.2821 15.369 18.2984 14.8132 18.1787 14.2793C18.1097 13.9715 18.2411 13.6534 18.5068 13.4834C18.9664 13.1895 19.3445 12.7841 19.6064 12.3057C19.8684 11.8272 20.0059 11.2906 20.0059 10.7451C20.0058 10.1996 19.8684 9.66304 19.6064 9.18457C19.3445 8.7061 18.9664 8.30072 18.5068 8.00684C18.241 7.83678 18.1105 7.51881 18.1797 7.21094C18.2999 6.67621 18.2825 6.11919 18.1299 5.59277C17.9773 5.06646 17.6941 4.58672 17.3066 4.19922C16.9191 3.81176 16.4394 3.52856 15.9131 3.37598C15.3869 3.22347 14.8304 3.20707 14.2959 3.32715C13.988 3.39638 13.6691 3.26491 13.499 2.99902C13.2053 2.53964 12.8005 2.16138 12.3223 1.89941C11.8438 1.63744 11.3062 1.50003 10.7607 1.5ZM13.2305 8.21484C13.5234 7.92195 13.9981 7.92195 14.291 8.21484C14.5839 8.50774 14.5839 8.9825 14.291 9.27539L10.291 13.2754C9.99812 13.5683 9.52336 13.5683 9.23047 13.2754L7.23047 11.2754C6.93758 10.9825 6.93758 10.5077 7.23047 10.2148C7.52336 9.92195 7.99812 9.92195 8.29102 10.2148L9.76074 11.6846L13.2305 8.21484Z" fill="currentColor"/></g></svg>