<svg xmlns="http://www.w3.org/2000/svg" viewBox="0 0 24 24" fill="none"><g transform="translate(12 12) scale(0.3737) translate(-31.9795 -32.0112)"><path d="M32.001 4.59668C33.917 4.59684 35.8028 5.07889 37.4834 5.99902C39.0126 6.83643 40.3269 8.01349 41.3291 9.43457C43.0503 9.12868 44.8214 9.22108 46.5049 9.70898C48.3539 10.245 50.0381 11.2403 51.3994 12.6016C52.7607 13.963 53.756 15.647 54.292 17.4961C54.7798 19.1793 54.8712 20.9499 54.5654 22.6709C55.987 23.6733 57.1644 24.9879 58.002 26.5176C58.9221 28.1984 59.4043 30.0848 59.4043 32.001C59.4042 33.9171 58.9221 35.8027 58.002 37.4834C57.1644 39.013 55.9869 40.3268 54.5654 41.3291C54.8699 43.0477 54.7788 44.8162 54.292 46.4971C53.7573 48.343 52.7647 50.0243 51.4072 51.3848C50.0495 52.7453 48.3695 53.7417 46.5244 54.2803C44.8449 54.7705 43.0773 54.8651 41.3584 54.5645C40.3568 55.9921 39.0415 57.175 37.5088 58.0166C35.8251 58.941 33.9344 59.4257 32.0137 59.4258C30.0932 59.4258 28.2031 58.9408 26.5195 58.0166C24.9872 57.1753 23.6715 55.9926 22.6699 54.5654C20.9522 54.8695 19.1849 54.7784 17.5049 54.292C15.6588 53.7574 13.9767 52.7647 12.6162 51.4072C11.2557 50.0495 10.2593 48.3695 9.7207 46.5244C9.23059 44.8452 9.13506 43.078 9.43555 41.3594C8.00273 40.3588 6.8159 39.0417 5.9707 37.5068C5.04217 35.8204 4.55481 33.9262 4.55469 32.001C4.55469 30.0756 5.04207 28.1808 5.9707 26.4941C6.81602 24.9589 8.00239 23.6414 9.43555 22.6406C9.13525 20.9223 9.23068 19.1555 9.7207 17.4766C10.2593 15.6314 11.2556 13.9525 12.6162 12.5947C13.9768 11.237 15.6586 10.2447 17.5049 9.70996C19.1853 9.22341 20.9528 9.13032 22.6709 9.43457C23.6732 8.01312 24.988 6.83654 26.5176 5.99902C28.1984 5.0788 30.0847 4.59668 32.001 4.59668ZM41.9443 24.7227C40.8704 23.6487 39.1296 23.6487 38.0557 24.7227L29.333 33.4434L25.9443 30.0557C24.8704 28.9819 23.1296 28.9819 22.0557 30.0557C20.9819 31.1296 20.9818 32.8714 22.0557 33.9453L27.3887 39.2783C28.4626 40.352 30.2044 40.352 31.2783 39.2783L41.9443 28.6113C43.0182 27.5374 43.0181 25.7966 41.9443 24.7227Z" fill="currentColor"/></g></svg>