<svg xmlns="http://www.w3.org/2000/svg" viewBox="0 0 24 24" fill="none"><g transform="translate(2.25 2.25)"><path id="TreeBranchVectors" d="M3.75 0C5.82107 0 7.5 1.67893 7.5 3.75C7.5 5.56421 6.21166 7.07734 4.5 7.4248V13.5586C4.88466 12.9473 5.3366 12.3743 5.85547 11.8555C7.52303 10.1879 9.73284 9.18963 12.0703 9.02637C12.4075 7.30162 13.9265 6 15.75 6C17.8211 6 19.5 7.67893 19.5 9.75C19.5 11.8211 17.8211 13.5 15.75 13.5C13.9458 13.5 12.4394 12.2259 12.0811 10.5283C10.1379 10.6863 8.30472 11.5273 6.91602 12.916C5.36884 14.4632 4.5 16.562 4.5 18.75C4.5 19.1642 4.16421 19.5 3.75 19.5C3.33579 19.5 3 19.1642 3 18.75V7.4248C1.28834 7.07734 0 5.56421 0 3.75C0 1.67893 1.67893 0 3.75 0ZM15.75 7.5C14.5074 7.5 13.5 8.50736 13.5 9.75C13.5 10.9926 14.5074 12 15.75 12C16.9926 12 18 10.9926 18 9.75C18 8.50736 16.9926 7.5 15.75 7.5ZM3.75 1.5C2.50736 1.5 1.5 2.50736 1.5 3.75C1.5 4.99264 2.50736 6 3.75 6C4.99264 6 6 4.99264 6 3.75C6 2.50736 4.99264 1.5 3.75 1.5Z" fill="currentColor"/></g></svg>