<svg preserveAspectRatio="none" width="100%" height="100%" overflow="visible" style="display: block;" viewBox="0 0 46.761 17.624" fill="none" xmlns="http://www.w3.org/2000/svg">
<g id="House_2">
<path id="Vector" d="M23.38 0L0 17.624H9.233V14.144L23.38 3.48L37.527 14.144V17.624H46.761L23.38 0Z" fill="var(--fill-0, #102D50)"/>
<path id="Vector_2" d="M19.714 13.175H22.88V16.341H19.714V13.175ZM23.88 9.173H27.046V12.339H23.88V9.173ZM19.714 9.173H22.88V12.339H19.714V9.173ZM23.88 13.175H27.046V16.341H23.88V13.175Z" fill="var(--fill-0, #102D50)"/>
<path id="Vector_3" d="M23.38 3.48L9.233 14.143V17.623H37.527V14.143L23.38 3.48ZM22.88 16.341H19.714V13.175H22.88V16.341ZM22.88 12.338H19.714V9.172H22.88V12.338ZM27.046 16.341H23.88V13.175H27.046V16.341ZM27.046 12.338H23.88V9.172H27.046V12.338Z" fill="var(--fill-0, #972328)"/>
</g>
</svg>
