<svg xmlns="http://www.w3.org/2000/svg" viewBox="0 0 24 24" fill="none"><path id="Union" d="M12 1.75C17.6609 1.75 22.25 6.33908 22.25 12C22.25 17.6609 17.6609 22.25 12 22.25C6.33908 22.25 1.75 17.6609 1.75 12C1.75 6.33908 6.33908 1.75 12 1.75ZM12 3.25C7.16751 3.25 3.25 7.16751 3.25 12C3.25 16.8325 7.16751 20.75 12 20.75C16.8325 20.75 20.75 16.8325 20.75 12C20.75 7.16751 16.8325 3.25 12 3.25ZM15.4453 9.49512C15.724 9.18895 16.1985 9.16679 16.5049 9.44531C16.8111 9.72398 16.8332 10.1985 16.5547 10.5049L11.5547 16.0049C11.4167 16.1564 11.2225 16.2451 11.0176 16.25C10.8126 16.2548 10.6147 16.1752 10.4697 16.0303L7.46973 13.0303C7.17683 12.7374 7.17683 12.2626 7.46973 11.9697C7.76262 11.6768 8.23738 11.6768 8.53027 11.9697L10.9736 14.4131L15.4453 9.49512Z" fill="currentColor"/></svg>