<svg xmlns="http://www.w3.org/2000/svg" viewBox="0 0 24 24" fill="none"><g transform="translate(12 12) scale(0.9535) translate(-10.75 -9.75)"><path id="ConstructionVectors" d="M15.75 0C16.1642 0 16.5 0.335786 16.5 0.75V3H19.75C20.7165 3 21.5 3.7835 21.5 4.75V10.75C21.5 11.7165 20.7165 12.5 19.75 12.5H16.5V18.75C16.5 19.1642 16.1642 19.5 15.75 19.5C15.3358 19.5 15 19.1642 15 18.75V12.5H6.5V18.75C6.5 19.1642 6.16421 19.5 5.75 19.5C5.33579 19.5 5 19.1642 5 18.75V12.5H1.75C0.783502 12.5 0 11.7165 0 10.75V4.75C0 3.7835 0.783502 3 1.75 3H5V0.75C5 0.335786 5.33579 0 5.75 0C6.16421 0 6.5 0.335786 6.5 0.75V3H15V0.75C15 0.335786 15.3358 0 15.75 0ZM1.5 10.75C1.5 10.8881 1.61193 11 1.75 11H6.93945L1.5 5.56055V10.75ZM15.0605 11H18.9395L12.4395 4.5H8.56055L15.0605 11ZM9.06055 11H12.9395L6.43945 4.5H2.56055L9.06055 11ZM20 9.93945V4.75C20 4.61193 19.8881 4.5 19.75 4.5H14.5605L20 9.93945Z" fill="currentColor"/></g></svg>