<svg preserveAspectRatio="none" width="100%" height="100%" overflow="visible" style="display: block;" viewBox="0 0 39.2792 14.8042" fill="none" xmlns="http://www.w3.org/2000/svg">
<g id="House_2">
<path id="Vector" d="M19.6392 0L0 14.8042H7.75572V11.881L19.6392 2.9232L31.5227 11.881V14.8042H39.2792L19.6392 0Z" fill="var(--fill-0, #102D50)"/>
<path id="Vector_2" d="M16.5598 11.067H19.2192V13.7264H16.5598V11.067ZM20.0592 7.70532H22.7186V10.3648H20.0592V7.70532ZM16.5598 7.70532H19.2192V10.3648H16.5598V7.70532ZM20.0592 11.067H22.7186V13.7264H20.0592V11.067Z" fill="var(--fill-0, #102D50)"/>
<path id="Vector_3" d="M19.6392 2.9232L7.75572 11.8801V14.8033H31.5227V11.8801L19.6392 2.9232ZM19.2192 13.7264H16.5598V11.067H19.2192V13.7264ZM19.2192 10.3639H16.5598V7.70448H19.2192V10.3639ZM22.7186 13.7264H20.0592V11.067H22.7186V13.7264ZM22.7186 10.3639H20.0592V7.70448H22.7186V10.3639Z" fill="var(--fill-0, #972328)"/>
</g>
</svg>
