<svg xmlns="http://www.w3.org/2000/svg" viewBox="0 0 24 24" fill="none"><g transform="translate(12 12) scale(0.9529) translate(-10.7563 -10.7563)"><path id="NoClaimVectors" d="M0.232422 0.21967C0.525315 -0.0732233 1.00008 -0.0732233 1.29297 0.21967L21.293 20.2197C21.5858 20.5126 21.5859 20.9873 21.293 21.2802C21.0001 21.5731 20.5253 21.5731 20.2324 21.2802L17.8213 18.8691C16.9462 19.6298 15.955 20.2484 14.8809 20.6933C13.5752 21.234 12.1759 21.5126 10.7627 21.5126C9.34935 21.5126 7.94932 21.2342 6.64355 20.6933C5.33794 20.1524 4.15164 19.3596 3.15234 18.3603C2.15295 17.3609 1.36021 16.1739 0.819336 14.8681C0.278575 13.5625 1.77095e-05 12.1631 0 10.7499C1.4892e-08 9.3366 0.278482 7.93657 0.819336 6.6308C1.26428 5.55673 1.88193 4.56525 2.64258 3.69037L0.232422 1.28022C-0.0604619 0.987333 -0.060443 0.512565 0.232422 0.21967ZM3.70508 4.75287C3.08182 5.48637 2.57461 6.31295 2.20508 7.20502C1.73961 8.3288 1.5 9.53358 1.5 10.7499C1.50002 11.9663 1.7396 13.1711 2.20508 14.2949C2.67057 15.4185 3.35286 16.4397 4.21289 17.2997C5.07295 18.1598 6.09407 18.8421 7.21777 19.3076C8.34155 19.773 9.54633 20.0126 10.7627 20.0126C11.979 20.0126 13.1839 19.773 14.3076 19.3076C15.1996 18.938 16.0253 18.4298 16.7588 17.8066L3.70508 4.75287ZM6.83984 0.741154C8.78604 -0.018872 10.9122 -0.195429 12.957 0.233342C15.002 0.662227 16.8776 1.67821 18.3545 3.15619C19.8315 4.63434 20.8461 6.51113 21.2734 8.55658C21.7007 10.6019 21.5224 12.728 20.7607 14.6738C20.6095 15.059 20.1745 15.2494 19.7891 15.0986C19.4037 14.9476 19.2136 14.5124 19.3643 14.1269C20.0197 12.4526 20.1723 10.6232 19.8047 8.86322C19.437 7.10332 18.5647 5.48858 17.2939 4.21674C16.023 2.94487 14.4082 2.07113 12.6484 1.70209C10.8889 1.33324 9.05937 1.48456 7.38477 2.13862C6.99918 2.28874 6.56472 2.0983 6.41406 1.71283C6.26343 1.32715 6.45431 0.892007 6.83984 0.741154Z" fill="currentColor"/></g></svg>