<svg xmlns="http://www.w3.org/2000/svg" viewBox="0 0 24 24" fill="none"><path id="NoVectors" d="M12 1.75C17.6608 1.75018 22.25 6.33919 22.25 12C22.25 17.6608 17.6608 22.2498 12 22.25C6.33923 22.2498 1.75 17.6608 1.75 12C1.75 6.33919 6.33923 1.75017 12 1.75ZM12 3.25C7.16766 3.25017 3.25 7.16762 3.25 12C3.25 16.8324 7.16766 20.7498 12 20.75C16.8323 20.7498 20.75 16.8324 20.75 12C20.75 7.16762 16.8323 3.25018 12 3.25ZM14.9873 7.95215C15.2802 7.6593 15.7549 7.65938 16.0479 7.95215C16.3403 8.24507 16.3406 8.71994 16.0479 9.0127L13.0605 12L16.0479 14.9873C16.3403 15.2802 16.3406 15.7551 16.0479 16.0479C15.7551 16.3406 15.2802 16.3403 14.9873 16.0479L12 13.0605L9.0127 16.0479C8.71994 16.3406 8.24506 16.3403 7.95215 16.0479C7.65939 15.755 7.65933 15.2802 7.95215 14.9873L10.9395 12L7.95215 9.0127C7.65927 8.71981 7.65929 8.24504 7.95215 7.95215C8.24504 7.65926 8.7198 7.65926 9.0127 7.95215L12 10.9395L14.9873 7.95215Z" fill="currentColor"/></svg>