<svg preserveAspectRatio="none" width="100%" height="100%" overflow="visible" style="display: block;" viewBox="0 0 14.9635 5.63968" fill="none" xmlns="http://www.w3.org/2000/svg">
<g id="House_2">
<path id="Vector" d="M7.4816 0L0 5.63968H2.95456V4.52608L7.4816 1.1136L12.0086 4.52608V5.63968H14.9635L7.4816 0Z" fill="var(--fill-0, #102D50)"/>
<path id="Vector_2" d="M6.30848 4.216H7.3216V5.22912H6.30848V4.216ZM7.6416 2.93536H8.65472V3.94848H7.6416V2.93536ZM6.30848 2.93536H7.3216V3.94848H6.30848V2.93536ZM7.6416 4.216H8.65472V5.22912H7.6416V4.216Z" fill="var(--fill-0, #102D50)"/>
<path id="Vector_3" d="M7.4816 1.1136L2.95456 4.52576V5.63936H12.0086V4.52576L7.4816 1.1136ZM7.3216 5.22912H6.30848V4.216H7.3216V5.22912ZM7.3216 3.94816H6.30848V2.93504H7.3216V3.94816ZM8.65472 5.22912H7.6416V4.216H8.65472V5.22912ZM8.65472 3.94816H7.6416V2.93504H8.65472V3.94816Z" fill="var(--fill-0, #972328)"/>
</g>
</svg>
