<svg preserveAspectRatio="none" width="100%" height="100%" overflow="visible" style="display: block;" viewBox="0 0 20.1722 6.46784" fill="none" xmlns="http://www.w3.org/2000/svg">
<g id="Text_1">
<path id="Vector" d="M0.87296 2.4272L0.7136 3.29632H0L0.7328 0.0473594H1.72384L2.48448 3.29632H1.75136L1.57248 2.4272H0.87264H0.87296ZM1.48992 1.9664C1.38592 1.41472 1.2864 0.89088 1.23456 0.52352H1.20896C1.18944 0.79136 1.05248 1.48704 0.96192 1.9664H1.48992ZM2.8208 0.0473594H3.52224V2.84832H4.66624L4.60672 3.29632H2.8208V0.0473594ZM4.95232 0.0473594H5.65376V2.84832H6.79776L6.73824 3.29632H4.95232V0.0473594ZM10.3014 2.08768C10.3014 1.53568 10.3098 0.848 10.3235 0.47552H10.3168C10.2122 1.03936 9.96064 2.35552 9.76384 3.29632H9.10176C8.95488 2.45248 8.7008 1.0656 8.59712 0.471359H8.58336C8.59712 0.850239 8.61824 1.58528 8.61824 2.144V3.29632H7.98272V0.0473594H9.02784C9.2048 0.873279 9.3872 1.79872 9.44864 2.25408H9.45536C9.5296 1.79328 9.776 0.826559 9.95808 0.0473594H10.968V3.29632H10.3014V2.08768ZM12.2864 0.0473594V3.29632H11.585V0.0473594H12.2864ZM14.9629 3.29632H14.416C14.3971 3.23904 14.3837 3.1216 14.3776 3.05248C14.2515 3.26848 13.9875 3.344 13.6938 3.344C13.0243 3.344 12.8086 2.99776 12.8086 2.44736V0.921279C12.8086 0.390399 13.0979 0 13.8883 0C14.8438 0 14.9443 0.501759 14.9443 0.850559V0.95616H14.2429V0.826238C14.2429 0.655038 14.208 0.456959 13.8874 0.456959C13.632 0.456959 13.5229 0.583359 13.5229 0.842559V2.50464C13.5229 2.7648 13.6282 2.9008 13.8819 2.9008C14.1859 2.9008 14.2602 2.71904 14.2602 2.38496V1.91072H13.8624V1.48H14.9626V3.29728L14.9629 3.29632ZM15.5341 0.0473594H16.2355V1.32992H16.9907V0.0473594H17.6922V3.29632H16.9907V1.79072H16.2355V3.29632H15.5341V0.0473594ZM18.736 0.512318H18.0058V0.0473594H20.1722V0.512318H19.4374V3.29632H18.736V0.512318Z" fill="var(--fill-0, #102D50)"/>
<path id="Vector_2" d="M1.58784 5.69024V5.78688C1.58784 6.0704 1.5216 6.46784 0.78752 6.46784C0.14464 6.46784 0.00832008 6.1808 0.00832008 5.80256V4.55232C0.00832008 4.1696 0.2512 3.91584 0.79648 3.91584C1.44768 3.91584 1.57184 4.224 1.57184 4.56768V4.67872H1.0352V4.52288C1.0352 4.35808 0.98112 4.26432 0.7952 4.26432C0.60928 4.26432 0.55328 4.35456 0.55328 4.52416V5.8352C0.55328 5.9968 0.5984 6.12256 0.8016 6.12256C1.0048 6.12256 1.04608 6.01344 1.04608 5.8288V5.69024H1.5872H1.58784ZM3.57312 4.61024V5.768C3.57312 6.2432 3.29088 6.46784 2.70272 6.46784C2.11456 6.46784 1.88448 6.23744 1.88448 5.77472V4.60736C1.88448 4.13248 2.2192 3.91584 2.73664 3.91584C3.25408 3.91584 3.57312 4.13312 3.57312 4.61024ZM2.42944 4.5728V5.81984C2.42944 6.02592 2.53344 6.12256 2.72672 6.12256C2.93472 6.12256 3.02784 6.03232 3.02784 5.8144V4.56992C3.02784 4.37312 2.94336 4.26432 2.72608 4.26432C2.53312 4.26432 2.42944 4.36288 2.42944 4.5728ZM3.9696 6.43168V3.952H4.58976C4.72832 4.30176 5.1424 5.52576 5.1792 5.65728H5.18496C5.16032 5.35232 5.15904 5.00352 5.15904 4.59584V3.952H5.65312V6.43168H5.05664C4.9472 6.13536 4.48512 4.77568 4.45024 4.67136H4.44512C4.4704 4.97152 4.46848 5.30752 4.46848 5.7536V6.43168H3.9696ZM6.44928 4.3072H5.89184V3.95232H7.54528V4.3072H6.98464V6.43168H6.44928V4.3072ZM8.31904 5.32288V6.43168H7.78368V3.952H8.52512C9.05344 3.952 9.36512 4.10304 9.36512 4.54944V4.64384C9.36512 5.02496 9.14624 5.12192 9.01184 5.16128C9.2144 5.22912 9.33024 5.33344 9.33024 5.66976C9.33024 5.8784 9.32512 6.28128 9.36192 6.43168H8.8448C8.79872 6.28192 8.80832 5.87456 8.80832 5.6944C8.80832 5.392 8.75392 5.32288 8.4432 5.32288H8.31904ZM8.31904 5.00704H8.44192C8.72512 5.00704 8.82944 4.93088 8.82944 4.66112V4.576C8.82944 4.38432 8.77408 4.26752 8.4704 4.26752H8.31904V5.00672V5.00704ZM10.2624 5.76832L10.1408 6.43168H9.59616L10.1552 3.952H10.9117L11.4922 6.43168H10.9325L10.7958 5.76832H10.2618H10.2624ZM10.7331 5.41664C10.6538 4.99552 10.5779 4.59584 10.5382 4.31552H10.5187C10.5037 4.51968 10.3994 5.05088 10.3302 5.41664H10.7331ZM13.2957 5.69024V5.78688C13.2957 6.0704 13.2294 6.46784 12.4957 6.46784C11.8528 6.46784 11.7165 6.1808 11.7165 5.80256V4.55232C11.7165 4.1696 11.9594 3.91584 12.5046 3.91584C13.1558 3.91584 13.28 4.224 13.28 4.56768V4.67872H12.7434V4.52288C12.7434 4.35808 12.6893 4.26432 12.5034 4.26432C12.3174 4.26432 12.2614 4.35456 12.2614 4.52416V5.8352C12.2614 5.9968 12.3066 6.12256 12.5098 6.12256C12.713 6.12256 12.7542 6.01344 12.7542 5.8288V5.69024H13.2954H13.2957ZM14.0106 4.3072H13.4531V3.95232H15.1066V4.3072H14.5459V6.43168H14.0106V4.3072ZM15.8803 3.952V6.43168H15.345V3.952H15.8803ZM16.353 6.43168V3.952H16.9731C17.1117 4.30176 17.5258 5.52576 17.5626 5.65728H17.5683C17.5437 5.35232 17.5424 5.00352 17.5424 4.59584V3.952H18.0365V6.43168H17.44C17.3306 6.13536 16.8685 4.77568 16.8336 4.67136H16.8285C16.8538 4.97152 16.8518 5.30752 16.8518 5.7536V6.43168H16.353ZM20.0742 6.43168H19.657C19.6426 6.38816 19.6323 6.29824 19.6275 6.24544C19.5312 6.41024 19.3299 6.46784 19.1056 6.46784C18.5946 6.46784 18.4301 6.20384 18.4301 5.78336V4.61888C18.4301 4.21376 18.6509 3.91584 19.2541 3.91584C19.983 3.91584 20.0602 4.29856 20.0602 4.5648V4.64544H19.5248V4.54624C19.5248 4.41536 19.4982 4.26432 19.2534 4.26432C19.0586 4.26432 18.975 4.36064 18.975 4.55872V5.8272C18.975 6.0256 19.0554 6.12928 19.249 6.12928C19.481 6.12928 19.5376 5.9904 19.5376 5.73568V5.37376H19.2339V5.04512H20.0736V6.432L20.0742 6.43168Z" fill="var(--fill-0, #972328)"/>
</g>
</svg>
